<?xml version="1.0" standalone="no"?>
<!DOCTYPE svg PUBLIC "-//W3C//DTD SVG 20010904//EN"
 "http://www.w3.org/TR/2001/REC-SVG-20010904/DTD/svg10.dtd">
<svg version="1.0" xmlns="http://www.w3.org/2000/svg"
 width="512.000000pt" height="512.000000pt" viewBox="0 0 512.000000 512.000000"
 preserveAspectRatio="xMidYMid meet">

<g transform="translate(0.000000,512.000000) scale(0.100000,-0.100000)"
fill="#000000" stroke="none">
<path d="M1180 4917 c-228 -69 -397 -246 -456 -477 -12 -49 -15 -93 -12 -185
3 -66 9 -128 13 -137 6 -16 1 -18 -36 -18 -52 0 -122 -32 -148 -68 -10 -15
-88 -189 -172 -387 l-154 -360 -3 -105 c-7 -195 17 -307 84 -396 l24 -31 0
-607 0 -608 -32 -31 c-42 -43 -65 -98 -73 -179 l-7 -68 -58 0 c-64 0 -115 -26
-137 -70 -10 -19 -13 -135 -13 -473 0 -492 0 -491 60 -522 26 -13 311 -15
2500 -15 2726 0 2511 -5 2544 64 12 25 16 63 16 140 0 185 -23 209 -202 214
l-118 4 -2 748 c-3 719 -4 749 -22 769 -26 29 -86 29 -112 0 -18 -20 -19 -50
-22 -770 l-2 -749 -115 0 -115 0 0 838 c0 475 -4 854 -10 877 -5 24 -21 51
-40 68 l-30 27 -573 0 c-628 0 -600 3 -632 -60 -13 -25 -15 -146 -15 -890 l0
-860 -105 0 -105 0 0 838 c0 475 -4 854 -10 877 -5 24 -21 51 -40 68 l-30 27
-1170 0 -1170 0 0 123 0 123 88 0 c75 -1 96 3 147 27 33 15 78 46 101 68 l40
39 24 -25 c41 -44 114 -84 184 -102 57 -14 77 -14 135 -4 74 13 150 52 195
100 l29 31 43 -40 c137 -126 339 -129 480 -6 l51 45 38 -39 c78 -80 210 -115
324 -86 63 16 160 72 185 107 12 18 15 17 52 -18 21 -20 68 -50 104 -67 56
-26 76 -31 145 -31 66 1 90 5 140 28 33 16 78 46 101 68 l40 39 24 -25 c41
-44 114 -84 184 -102 57 -14 77 -14 135 -4 74 13 150 52 195 100 l29 31 43
-40 c137 -126 339 -129 480 -6 l51 45 38 -39 c20 -21 65 -51 99 -66 52 -24 74
-28 148 -28 l87 0 3 -132 c3 -113 6 -135 22 -153 26 -29 86 -29 112 0 17 19
19 41 22 203 3 170 5 183 26 211 67 88 91 201 84 395 l-3 105 -154 360 c-84
198 -162 372 -172 387 -11 14 -39 36 -62 47 -38 19 -62 21 -206 21 l-162 0 3
57 3 58 41 7 c141 23 271 164 289 313 8 61 -8 153 -37 209 -31 60 -105 133
-167 163 l-56 28 -940 0 -940 0 -57 -28 c-74 -36 -139 -102 -174 -175 -25 -50
-28 -69 -29 -152 0 -78 4 -104 23 -144 48 -105 138 -183 242 -209 l55 -14 3
-57 3 -56 -206 0 c-194 0 -206 1 -201 18 17 52 24 173 15 245 -19 151 -81 279
-189 387 -74 73 -148 120 -248 158 -56 21 -88 26 -197 29 -113 3 -140 0 -205
-20z m331 -147 c131 -41 241 -131 302 -249 47 -88 58 -136 58 -241 0 -178 -89
-335 -243 -433 -121 -76 -317 -92 -451 -35 -282 119 -399 438 -260 713 34 65
130 165 195 200 123 67 274 84 399 45z m1139 -615 l0 -55 -45 0 -45 0 0 55 0
55 45 0 45 0 0 -55z m1100 0 l0 -55 -44 0 c-80 0 -128 -69 -86 -123 l21 -27
404 0 c310 0 405 -3 412 -12 10 -13 253 -582 253 -592 0 -8 -3958 -5 -4146 3
l-151 6 124 293 125 292 68 0 c63 0 69 -2 86 -27 37 -57 121 -138 193 -184
108 -72 209 -102 346 -103 131 -1 192 12 302 66 89 43 188 126 248 208 l37 50
713 0 714 0 21 27 c26 33 20 68 -16 101 -25 22 -29 22 -295 22 l-269 0 0 55 0
55 470 0 470 0 0 -55z m250 0 l0 -55 -50 0 -50 0 0 55 0 55 50 0 50 0 0 -55z
m-2650 -1069 c0 -56 -5 -118 -11 -137 -57 -170 -286 -195 -376 -41 -26 43 -28
57 -32 165 l-3 117 211 0 211 0 0 -104z m1130 -10 c0 -131 -5 -149 -56 -206
-72 -80 -194 -87 -279 -18 -60 50 -75 94 -75 226 l0 112 205 0 205 0 0 -114z
m1140 10 c0 -56 -5 -118 -11 -137 -57 -170 -286 -195 -376 -41 -26 43 -28 57
-32 165 l-3 117 211 0 211 0 0 -104z m1130 -10 c0 -131 -5 -149 -56 -206 -72
-80 -194 -87 -279 -18 -60 50 -75 94 -75 226 l0 112 205 0 205 0 0 -114z
m-3620 -1032 l0 -216 -22 6 c-13 3 -47 6 -75 6 -37 0 -53 4 -53 13 0 8 -11 24
-24 36 -35 33 -84 26 -111 -15 -18 -29 -25 -32 -85 -36 -71 -5 -111 -22 -163
-67 -32 -29 -70 -100 -82 -153 -3 -16 -12 -28 -20 -28 -13 0 -15 46 -15 335
l0 335 325 0 325 0 0 -216z m810 -109 c0 -312 1 -326 20 -345 30 -30 83 -27
109 6 20 26 21 38 21 345 l0 319 325 0 325 0 0 -615 0 -615 -325 0 -325 0 0
139 c0 125 -2 141 -21 165 -23 30 -72 35 -105 12 -17 -13 -20 -31 -24 -163
l-5 -148 -41 -3 -42 -3 -3 80 c-4 75 -6 83 -36 113 -29 29 -40 33 -102 36
l-69 4 -7 67 c-8 81 -31 136 -75 179 -55 56 -106 76 -186 77 l-72 0 -11 48
c-7 30 -11 161 -11 338 l0 289 330 0 330 0 0 -325z m2070 -450 l0 -535 -252 2
-253 3 -3 533 -2 532 255 0 255 0 0 -535z m-3161 176 c38 -27 81 -27 117 2 43
33 104 30 143 -7 44 -42 41 -66 -8 -66 -49 0 -97 -16 -138 -46 -17 -13 -35
-24 -38 -24 -3 0 -21 11 -38 24 -45 33 -90 46 -158 46 -33 0 -59 2 -59 4 0 23
26 60 52 76 39 25 84 21 127 -9z m851 -711 l0 -160 -775 0 -775 0 0 160 0 160
775 0 775 0 0 -160z m0 -465 l0 -155 -775 0 -775 0 0 155 0 155 775 0 775 0 0
-155z m1400 -100 l0 -55 -100 0 -100 0 0 55 0 55 100 0 100 0 0 -55z m1870 0
l0 -55 -280 0 -280 0 0 55 0 55 280 0 280 0 0 -55z"/>
<path d="M1310 4628 c-11 -12 -20 -30 -20 -40 0 -15 -9 -18 -54 -18 -97 0
-180 -54 -222 -145 -32 -67 -33 -180 -3 -260 27 -74 100 -146 173 -174 110
-41 297 -36 387 10 52 26 112 87 140 141 35 66 39 206 9 276 -24 56 -83 116
-136 138 -18 8 -58 14 -89 14 -48 0 -55 2 -55 20 0 55 -89 81 -130 38z"/>
</g>
</svg>
