<svg xmlns="http://www.w3.org/2000/svg" width="128" height="128" viewBox="0 0 128 128" version="1.1"><path d="M 48 1.576 C 25.499 7.485, 7.118 26.179, 1.395 48.974 C -1.025 58.614, -0.134 76.228, 3.230 85.242 C 10.360 104.347, 25.909 119.438, 44.500 125.295 C 54.536 128.457, 73.500 128.450, 83.500 125.282 C 102.781 119.173, 119.737 102.144, 125.105 83.500 C 126.213 79.650, 127.543 75.719, 128.060 74.764 C 129.131 72.785, 129.368 51.299, 128.307 52.360 C 127.926 52.741, 127.021 50.679, 126.297 47.776 C 120.876 26.063, 101.779 7.168, 79.540 1.515 C 72.042 -0.391, 55.367 -0.359, 48 1.576 M 49.800 5.549 C 37.673 8.489, 25.496 16.260, 17.207 26.346 C 1.552 45.396, -0.277 73.902, 12.775 95.439 L 16.374 101.378 17.762 97.215 C 19.575 91.775, 23.395 88.692, 31.717 85.952 C 35.447 84.724, 41.538 82.201, 45.250 80.347 C 52.938 76.506, 53.891 74.114, 49.403 69.924 C 46.670 67.374, 43 60.986, 43 58.780 C 43 58.066, 42.100 56.919, 41 56.232 C 39.309 55.176, 39 53.900, 39 47.978 C 39 44.125, 39.558 40.079, 40.241 38.986 C 41.228 37.405, 41.228 36.595, 40.241 35.014 C 37.483 30.598, 40.263 23.639, 46.241 19.995 C 49.075 18.267, 51.294 18.007, 63.250 18.004 C 75.670 18, 77.194 18.194, 79 20 C 80.100 21.100, 81 22.620, 81 23.379 C 81 24.137, 82.367 25.324, 84.038 26.016 C 85.709 26.708, 87.509 28.083, 88.038 29.071 C 88.567 30.060, 89 36.294, 89 42.926 C 89 53.900, 88.820 55.095, 87 56.232 C 85.900 56.919, 85 58.066, 85 58.780 C 85 60.986, 81.330 67.374, 78.597 69.924 C 74.109 74.114, 75.062 76.506, 82.750 80.347 C 86.463 82.201, 92.553 84.724, 96.283 85.952 C 104.617 88.695, 108.593 91.909, 110.171 97.176 C 111.290 100.912, 111.479 101.070, 112.771 99.352 C 116.121 94.897, 121.274 83.195, 122.563 77.115 C 125.600 62.790, 124.130 51.292, 117.495 37.459 C 111.491 24.941, 103.059 16.509, 90.541 10.505 C 85.568 8.120, 79.115 5.681, 76.201 5.084 C 69.109 3.633, 56.807 3.850, 49.800 5.549 M 51.541 38.267 C 51.331 38.945, 50.759 40.850, 50.270 42.500 C 49.692 44.450, 48.264 46.001, 46.191 46.930 C 42.898 48.407, 41.674 52.392, 44.250 53.250 C 44.938 53.479, 46.400 56.289, 47.500 59.494 C 50.779 69.047, 58.440 73.453, 68.492 71.567 C 73.664 70.597, 79.780 64.231, 80.626 58.935 C 81.004 56.571, 82.067 54.351, 83.140 53.680 C 85.304 52.329, 85.663 48, 83.611 48 C 81.084 48, 77.851 44.505, 77.113 40.976 C 76.426 37.689, 76.200 37.526, 72.943 37.983 C 67.801 38.705, 58.935 38.597, 55.212 37.767 C 52.938 37.261, 51.806 37.415, 51.541 38.267 M 0.378 64 C 0.378 70.325, 0.541 72.912, 0.739 69.750 C 0.937 66.587, 0.937 61.412, 0.739 58.250 C 0.541 55.087, 0.378 57.675, 0.378 64 M 56.043 77 C 56.066 77.825, 57.891 80.525, 60.097 83 L 64.109 87.500 68.052 83 C 73.946 76.273, 73.529 75.500, 64 75.500 C 57.537 75.500, 56.008 75.788, 56.043 77 M 53.445 85.439 C 52.618 89.849, 53.113 92.042, 55.236 93.379 C 56.612 94.246, 57.424 94.020, 59.153 92.292 L 61.333 90.111 57.705 86.095 L 54.076 82.078 53.445 85.439 M 70.155 86.476 C 68.420 88.453, 67 90.269, 67 90.512 C 67 90.755, 68.127 91.692, 69.505 92.595 C 72.739 94.714, 75.006 93.073, 74.985 88.628 C 74.958 83.077, 73.651 82.495, 70.155 86.476 M 62.159 95.309 C 60.800 96.946, 61.614 98, 64.240 98 C 65.482 98, 66.034 97.419, 65.823 96.333 C 65.393 94.114, 63.573 93.605, 62.159 95.309 M 55.375 101.125 C 55.719 102.844, 56 104.644, 56 105.125 C 56 107.200, 57.813 105.760, 58.280 103.313 C 58.931 99.909, 58.208 98, 56.268 98 C 55.101 98, 54.895 98.723, 55.375 101.125 M 69.671 99.415 C 69.372 100.194, 69.492 102.106, 69.938 103.665 L 70.748 106.500 71.874 103.685 C 72.493 102.137, 73 100.224, 73 99.435 C 73 97.581, 70.380 97.566, 69.671 99.415 M 62.724 102.697 C 62.471 103.139, 61.728 105.787, 61.073 108.582 C 60.059 112.905, 60.130 114.285, 61.549 117.832 C 62.467 120.124, 63.581 122, 64.026 122 C 64.471 122, 65.576 120.059, 66.482 117.686 C 67.934 113.883, 67.968 112.736, 66.770 108.004 C 65.506 103.018, 63.812 100.796, 62.724 102.697" stroke="none" fill="#1b2d39" fill-rule="evenodd"/><path d="M 49.800 5.549 C 37.673 8.489, 25.496 16.260, 17.207 26.346 C 1.552 45.396, -0.277 73.902, 12.775 95.439 L 16.374 101.378 17.762 97.215 C 19.575 91.775, 23.395 88.692, 31.717 85.952 C 35.447 84.724, 41.538 82.201, 45.250 80.347 C 52.938 76.506, 53.891 74.114, 49.403 69.924 C 46.670 67.374, 43 60.986, 43 58.780 C 43 58.066, 42.100 56.919, 41 56.232 C 39.309 55.176, 39 53.900, 39 47.978 C 39 44.125, 39.558 40.079, 40.241 38.986 C 41.228 37.405, 41.228 36.595, 40.241 35.014 C 37.483 30.598, 40.263 23.639, 46.241 19.995 C 49.075 18.267, 51.294 18.007, 63.250 18.004 C 75.670 18, 77.194 18.194, 79 20 C 80.100 21.100, 81 22.620, 81 23.379 C 81 24.137, 82.367 25.324, 84.038 26.016 C 85.709 26.708, 87.509 28.083, 88.038 29.071 C 88.567 30.060, 89 36.294, 89 42.926 C 89 53.900, 88.820 55.095, 87 56.232 C 85.900 56.919, 85 58.066, 85 58.780 C 85 60.986, 81.330 67.374, 78.597 69.924 C 74.109 74.114, 75.062 76.506, 82.750 80.347 C 86.463 82.201, 92.553 84.724, 96.283 85.952 C 104.617 88.695, 108.593 91.909, 110.171 97.176 C 111.290 100.912, 111.479 101.070, 112.771 99.352 C 116.121 94.897, 121.274 83.195, 122.563 77.115 C 125.600 62.790, 124.130 51.292, 117.495 37.459 C 111.491 24.941, 103.059 16.509, 90.541 10.505 C 85.568 8.120, 79.115 5.681, 76.201 5.084 C 69.109 3.633, 56.807 3.850, 49.800 5.549 M 51.541 38.267 C 51.331 38.945, 50.759 40.850, 50.270 42.500 C 49.692 44.450, 48.264 46.001, 46.191 46.930 C 42.898 48.407, 41.674 52.392, 44.250 53.250 C 44.938 53.479, 46.400 56.289, 47.500 59.494 C 50.779 69.047, 58.440 73.453, 68.492 71.567 C 73.664 70.597, 79.780 64.231, 80.626 58.935 C 81.004 56.571, 82.067 54.351, 83.140 53.680 C 85.304 52.329, 85.663 48, 83.611 48 C 81.084 48, 77.851 44.505, 77.113 40.976 C 76.426 37.689, 76.200 37.526, 72.943 37.983 C 67.801 38.705, 58.935 38.597, 55.212 37.767 C 52.938 37.261, 51.806 37.415, 51.541 38.267 M 56.043 77 C 56.066 77.825, 57.891 80.525, 60.097 83 L 64.109 87.500 68.052 83 C 73.946 76.273, 73.529 75.500, 64 75.500 C 57.537 75.500, 56.008 75.788, 56.043 77 M 53.445 85.439 C 52.618 89.849, 53.113 92.042, 55.236 93.379 C 56.612 94.246, 57.424 94.020, 59.153 92.292 L 61.333 90.111 57.705 86.095 L 54.076 82.078 53.445 85.439 M 70.155 86.476 C 68.420 88.453, 67 90.269, 67 90.512 C 67 90.755, 68.127 91.692, 69.505 92.595 C 72.739 94.714, 75.006 93.073, 74.985 88.628 C 74.958 83.077, 73.651 82.495, 70.155 86.476 M 62.159 95.309 C 60.800 96.946, 61.614 98, 64.240 98 C 65.482 98, 66.034 97.419, 65.823 96.333 C 65.393 94.114, 63.573 93.605, 62.159 95.309 M 55.375 101.125 C 55.719 102.844, 56 104.644, 56 105.125 C 56 107.200, 57.813 105.760, 58.280 103.313 C 58.931 99.909, 58.208 98, 56.268 98 C 55.101 98, 54.895 98.723, 55.375 101.125 M 69.671 99.415 C 69.372 100.194, 69.492 102.106, 69.938 103.665 L 70.748 106.500 71.874 103.685 C 72.493 102.137, 73 100.224, 73 99.435 C 73 97.581, 70.380 97.566, 69.671 99.415 M 62.724 102.697 C 62.471 103.139, 61.728 105.787, 61.073 108.582 C 60.059 112.905, 60.130 114.285, 61.549 117.832 C 62.467 120.124, 63.581 122, 64.026 122 C 64.471 122, 65.576 120.059, 66.482 117.686 C 67.934 113.883, 67.968 112.736, 66.770 108.004 C 65.506 103.018, 63.812 100.796, 62.724 102.697" stroke="none" fill="#cfdcee" fill-rule="evenodd"/></svg>